<?xml version="1.0" encoding="utf-8"?>
<!-- Generator: Adobe Illustrator 15.0.2, SVG Export Plug-In . SVG Version: 6.00 Build 0)  -->
<!DOCTYPE svg PUBLIC "-//W3C//DTD SVG 1.1//EN" "http://www.w3.org/Graphics/SVG/1.1/DTD/svg11.dtd">
<svg version="1.1" id="Layer_1" xmlns="http://www.w3.org/2000/svg" xmlns:xlink="http://www.w3.org/1999/xlink" x="0px" y="0px"
	 width="420.015px" height="361.619px" viewBox="0 0 420.015 361.619" enable-background="new 0 0 420.015 361.619"
	 xml:space="preserve">

<path fill-rule="evenodd" clip-rule="evenodd" fill="#FFFFFF" d="M243.553,132.695h-14.571c4.909-4.711,10.997-10.691,12.221-19.06
	c0.262-1.858,0.366-4.292,0-6.374c-1.268-6.905-7.095-13.231-15.417-13.042c-8.83,0.211-12.821,6.411-16.195,12.426
	c-3.117-6.045-7.099-12.061-15.712-12.268c-7.955-0.187-13.427,4.915-15.251,10.404c-3.684,11.073,4.812,22.285,11.438,27.912
	h-14.427l-6.133-7.835v25.848l6.133-8.691h28.132v63.828h0.17l-9.125,8.381h28.811l-8.225-8.381v-63.828h28.152l6.133,8.691v-25.848
	L243.553,132.695z M225.482,103.382c2.757-0.468,4.966,1.716,6.122,3.879c1.242,7.45-2.25,12.467-6.122,16.311
	c-3.036,3.007-6.904,5.502-10.063,7.293C215.285,120.586,216.411,104.924,225.482,103.382z M189.475,104.783
	c1.056-0.964,3.708-1.938,5.812-1.093c7.849,3.176,8.724,17.646,8.653,27.176c-3.098-1.574-6.954-4.127-10.061-7.142
	C189.778,119.749,183.636,110.111,189.475,104.783z"/>
<g>
	<path fill-rule="evenodd" clip-rule="evenodd" fill="#FFCE06" d="M329.362,109.302c-9.329,16.759-19.081,33.322-28.578,50.017
		c-18.913,33.293-38.695,66.085-57.776,99.407c-7.147,12.471-14.451,24.857-21.599,37.277c-2.335,4.085-4.294,8.379-7.135,12.115
		c-0.448-17.177,0.058-37.627-0.153-51.722c-0.028-2.111-0.308-4.533,0-6.059c0.21-1.132,1.468-2.684,2.322-4.194
		c17.892-31.099,35.727-62.35,53.9-93.349c4.686-7.989,9.289-15.949,14.143-24.229c1.537-2.652,3.764-5.792,4.182-8.541
		c0.813-5.211-2.478-8.96-6.532-10.408c2.585-0.336,6.674-0.079,9.177-0.155C301.985,109.154,315.948,109.373,329.362,109.302z"/>
	<path fill-rule="evenodd" clip-rule="evenodd" fill="#FFCE06" d="M138.944,109.617c-4.143,1.671-8.113,5.769-6.211,12.12
		c0.796,2.665,2.91,5.394,4.49,8.227c13.597,24.117,27.573,48.143,41.478,72.071c8.434,14.533,16.885,28.985,25.475,43.953
		c0.812,1.399,2.098,2.917,2.335,3.882c0.461,2.001,0,4.932,0,7.462c0,17.306-0.028,35.467,0,50.786
		c-1.007-0.631-1.637-1.834-2.182-2.8c-7.638-13.262-15.597-26.792-23.305-40.221c-29.573-51.543-59.776-103.394-89.46-155.012
		c-0.099-0.127-0.239-0.427,0-0.468C107.356,109.617,123.137,109.617,138.944,109.617z"/>
	<path fill-rule="evenodd" clip-rule="evenodd" fill="#FFCE06" d="M291.312,109.462c-2.503,0.076-6.592-0.181-9.177,0.155
		c4.055,1.447,7.346,5.196,6.532,10.408c-0.418,2.749-2.645,5.888-4.182,8.541c-4.854,8.28-9.457,16.24-14.143,24.229
		c-18.174,31-36.009,62.25-53.9,93.349c-0.854,1.511-2.112,3.062-2.322,4.194c-0.308,1.525-0.028,3.947,0,6.059
		c0.21,14.095-0.295,34.545,0.153,51.722c2.841-3.736,4.8-8.03,7.135-12.115c7.147-12.42,14.451-24.807,21.599-37.277
		c19.081-33.321,38.863-66.113,57.776-99.407c9.497-16.695,19.249-33.258,28.578-50.017
		C315.948,109.373,301.985,109.154,291.312,109.462z M91.563,109.617c-0.239,0.041-0.099,0.341,0,0.468
		c29.685,51.619,59.888,103.469,89.46,155.012c7.708,13.429,15.667,26.959,23.305,40.221c0.545,0.966,1.175,2.169,2.182,2.8
		c-0.028-15.319,0-33.48,0-50.786c0-2.53,0.461-5.461,0-7.462c-0.237-0.965-1.523-2.482-2.335-3.882
		c-8.589-14.968-17.041-29.42-25.475-43.953c-13.905-23.928-27.881-47.954-41.478-72.071c-1.58-2.833-3.693-5.562-4.49-8.227
		c-1.902-6.351,2.068-10.449,6.211-12.12C123.137,109.617,107.356,109.617,91.563,109.617z"/>
</g>
<g>
	<path fill-rule="evenodd" clip-rule="evenodd" fill="#FFCE06" d="M0,0l209.443,361.619L420.015,0H0z M335.548,16.947h28.794v7.728
		h-21.065v12.026h14.213v7.873h-14.213v13.34h22.596v7.873h-30.324V16.947z M295.092,16.947h7.729l17.786,31.199V16.947h7.726v48.84
		h-6.853l-18.659-33.094v33.094h-7.729V16.947z M277.454,16.947h7.871v48.84h-7.871V16.947z M237.506,16.947h30.179V23.8h-11.3
		v41.987h-7.726V23.8h-11.153V16.947z M197.051,16.947h7.728l17.787,31.199V16.947h7.726v48.84h-6.853l-18.66-33.094v33.094h-7.728
		V16.947z M159.51,16.947h28.793v7.728h-21.065v12.026h14.214v7.873h-14.214v13.34h22.597v7.873H159.51V16.947z M121.97,16.947
		h7.727v40.967h22.597v7.873H121.97V16.947z M100.175,16.947l16.766,48.84h-8.164l-4.812-13.704H88.73l-4.81,13.704h-8.237
		l16.764-48.84H100.175z M47.356,16.947l12.334,32.584l10.277-32.584h8.236l-15.087,48.84h-7.071l-16.781-48.84H47.356z
		 M50.27,75.092l0.024,0.041H369.49l-160.047,274.7L50.27,75.092z"/>
	<polygon fill-rule="evenodd" clip-rule="evenodd" fill="#FFCE06" points="96.385,30.506 91.427,44.21 101.195,44.21 	"/>
</g>
</svg>
